<svg id="Layer_1" data-name="Layer 1" xmlns="http://www.w3.org/2000/svg" viewBox="0 0 119.9 121.13"><defs><style>.cls-1{fill:#195595;}.cls-2{fill:#ec2225;}.cls-3{fill:#ed2226;}.cls-4{fill:#ec2226;}.cls-5{fill:#ee2426;}.cls-6{fill:#ec2424;}.cls-7{fill:#f9af1b;}</style></defs><title>01</title><path id="path13" class="cls-1" d="M106.14,78.71c-8.33,18.73-24.31,31.74-45.29,32-15.23.21-28.7-5-38.43-14.12l-5.87,2.5V90A53,53,0,0,1,6.41,58C6.41,26.2,30.75,1.15,64.75,1.15A64.85,64.85,0,0,1,79.08,2.87,58.62,58.62,0,0,0,61,0,60.45,60.45,0,0,0,0,60.07c0,33.22,26.07,61.06,60.28,61.06,32.68,0,50.3-23,56-36.91l-10.1-5.51"/><path id="path15" class="cls-2" d="M97.68,72.14a16.59,16.59,0,0,0,9.94-4.27,7.75,7.75,0,0,0,2-5.54c.08-2.46,0-10.18,0-10.18L97,54.9v3c0,2,1,3,3,2.67.66-.12,1.65-.41,1.65-.41v2.43c0-.09.2,1.35-3,2-4.19.65-6.08-1.93-6.12-6.49.08-4.89,2.83-7.68,6.2-8.46a14.62,14.62,0,0,1,7.15.21c4.18.61,5.37-5.67,1.56-7.15a18.07,18.07,0,0,0-10-.66c-4.68.95-13.84,4.85-13.88,17.54,0,10.1,7.39,13.38,14.08,12.64"/><path id="path17" class="cls-3" d="M56.42,82.94s3.9-1.35,4.23-1.43c3.12-1.07,4.27-3,4.27-6.16,0-3.49,0-10.31,0-10.31L74,75.47a4.77,4.77,0,0,0,5,1.15,4.53,4.53,0,0,0,3.24-4.35V46.36s-2.34.49-4.27,1C75.72,48,74,49.44,74,53.21v9s-5.17-6.45-8.5-9.78c-1.76-1.76-4.72-.69-4.72-.69l-4.35,1.31V82.94"/><path id="path19" class="cls-4" d="M53.67,53.71s-2.71.78-4.93,1.6c-2.88,1-4.56,2.71-4.56,7.06V87.21s2.51-.86,4.89-1.76c3.32-1.28,4.6-3,4.6-6.49V53.71"/><path id="path21" class="cls-5" d="M40.16,59.62a4.33,4.33,0,0,0-5.55,1.52l-7.67,13.1V63.68l-9.12,3.74,0,29.81,6.4-2.67a3.9,3.9,0,0,0,2-1.56,6.31,6.31,0,0,0,.65-2.91V80.64L34,88.24a5,5,0,0,0,7,.41,4.63,4.63,0,0,0,.66-6.45l-6.49-6.53L41.8,65.16a3.74,3.74,0,0,0-1.64-5.54"/><path id="path25" class="cls-3" d="M22.17,55.6c0-1.65-1.31-2.55-3.49-1.44v5.3l1.23-.58a3.47,3.47,0,0,0,2.26-3.28m-3.53-4.81c.41-.16.7-.29,1-.45a3.42,3.42,0,0,0,2-3.08c0-1.6-1.31-2-3.08-1.11Zm9.36,4c.09,4.18-2.91,6.4-6.85,8l-8,3.41V44.51s5.05-2,6.69-2.67c4.68-1.72,7.43.37,7.43,3.49a6.72,6.72,0,0,1-2.83,5.42A4.23,4.23,0,0,1,28,54.82Z"/><path id="path27" class="cls-6" d="M43.2,36.5c0-1.84-1.28-2.3-2.8-1.89-1.23.37-2.67.91-2.67.91V49c0,1.35-.2,3-1.88,3.45-1.28.32-1.89-.54-1.89-1.89V39.54c0-1.85-1.28-2.38-2.8-1.89-1.72.58-2.71,1-2.71,1V52c0,4.48,3.08,6.74,7.77,5.34,4.14-1.23,6.93-3.57,7-9.52V36.5"/><path id="path29" class="cls-3" d="M87.79,42.09a2.37,2.37,0,0,0,1.93-2.59V37.16L83.23,38.6V34.78s3.2-.66,4.06-.86A1.93,1.93,0,0,0,89,31.78V29.56L83.23,30.8v-3l4.6-1c1.27-.24,1.68-1.11,1.68-2.3v-2.3c-2.87.5-8.33,1.61-11.74,2.39l0,19.79s6.49-1.52,10.06-2.3"/><path id="path31" class="cls-5" d="M50.18,41.27s3.2-1.69,3.2-4.32c0-2.25-2.1-1.76-3.16-1.35l0,5.67m0,3.08v5.33a3.23,3.23,0,0,1-2.22,3h0c-1,.37-3.24,1.11-3.24,1.11V33.34s4.55-1.6,7.22-2.22c4.11-1,7.07.91,7,4.27a8.33,8.33,0,0,1-3.4,6.49l3.53,3.37a2.91,2.91,0,0,1,0,4.1,3,3,0,0,1-4.15-.16S50.22,44.35,50.22,44.35Z"/><path id="path33" class="cls-5" d="M96.25,30.3s3.16-1.19,3.12-3.73c0-2.14-2.14-1.77-3.17-1.52l0,5.25M90.91,41.47V21.93s5.71-1,7.18-1.19c4.11-.54,6.86,1.76,6.78,5a6.79,6.79,0,0,1-3.33,5.59s2.79,3.12,3.53,4a2.64,2.64,0,0,1-.53,4,2.81,2.81,0,0,1-3.74-.49l-4.55-5.42V38.1a2.73,2.73,0,0,1-2.34,2.8l-3,.57Z"/><path id="path35" class="cls-5" d="M76.45,33.26l-8.08,1.85v2.26a1.42,1.42,0,0,0,1.8,1.51c.66-.12,1.19-.24,1.19-.24V40.9c0,.9-1.31,1.47-2.71,1.43-2-.08-3-1.6-3.08-4.47,0-3.78,1.85-6,4.27-6.61a7.39,7.39,0,0,1,3.17,0c2.09.32,3.28-.66,3.32-2.39s-1.6-3-5.09-2.87C63.6,26.2,59.7,31.7,59.7,38.23c0,6.69,4.4,9.65,9.73,8.7A11.23,11.23,0,0,0,75,44.43,4.67,4.67,0,0,0,76.45,41V33.26"/><path class="cls-7" d="M90,15.69s-4.51-7.64-20.4-9.37c-8.54-.9-20.12.82-28.25,5.22-14.78,7.92-17,21-17,21a2.56,2.56,0,0,0,.12,1.73c.33.41.82.41,1.44.2,5.21-1.76,20.69-6.9,30.47-9.48,13.91-3.7,25.37-6,32.68-7.19.57-.12,1-.29,1.23-.78A1.41,1.41,0,0,0,90,15.69ZM31.41,28.78c-.2,1.69-2.3,1.44-2.17-.12.32-3.94,6.36-13.34,15.31-17.29C39.05,14.74,33.3,21.56,31.41,28.78ZM74.16,18.11c1.84-.58,3.28-2,3.24-3.66,0-2.54-5.75-6.24-15.36-6.89,9.45-.79,19.71,3.4,19.63,7C81.63,16.75,79,16.92,74.16,18.11Z"/><path class="cls-7" d="M100.68,74.52c-.37-.41-.94-.41-1.68-.24-16.92,4-45,12.56-61.18,19.5-.7.29-1,.41-1.24.91-.32.78.46,1.56.46,1.56,3.28,4.14,17.94,9.4,33.87,5.54,24.31-5.87,29.44-23.08,30-25.5A2,2,0,0,0,100.68,74.52Zm-5.54,6.82a33.22,33.22,0,0,1-18,16.43,34.08,34.08,0,0,0,15-17.21C93,77.77,96.25,79,95.14,81.34Z"/><path id="path43" class="cls-5" d="M113.53,73.33h1c.53,0,1.23.09,1.23.74s-.49.82-1.15.82h-1l0-1.56m-1.19,5h1.15V75.8h.74l1.44,2.5h1.23l-1.56-2.58c.86-.09,1.56-.5,1.56-1.56,0-1.28-.82-1.77-2.3-1.77h-2.26V78.3Zm-3.28-3a5.42,5.42,0,1,0,5.42-5.26A5.25,5.25,0,0,0,109.06,75.35Zm1.43,0a4,4,0,1,1,4,4.14A4,4,0,0,1,110.49,75.35Z"/></svg>