<svg id="Layer_1" data-name="Layer 1" xmlns="http://www.w3.org/2000/svg" viewBox="0 0 120 99.67"><defs><style>.cls-1{fill:#f78c1e;}</style></defs><title>06</title><path class="cls-1" d="M6.75,59.25l-.19,0h80.3L61.61,84.5a6.64,6.64,0,0,0,0,9.32l3.93,3.93a6.58,6.58,0,0,0,9.28,0l43.27-43.27a6.63,6.63,0,0,0,0-9.31L74.82,1.91a6.59,6.59,0,0,0-9.28,0L61.61,5.84a6.54,6.54,0,0,0-1.91,4.64A6.35,6.35,0,0,0,61.61,15L87.14,40.47H6.66A6.8,6.8,0,0,0,0,47.2v5.56A6.68,6.68,0,0,0,6.75,59.25Z" transform="translate(0 0)"/></svg>