<svg id="Layer_1" data-name="Layer 1" xmlns="http://www.w3.org/2000/svg" viewBox="0 0 120 120.99"><defs><style>.cls-1{fill:#b0b0b1;}.cls-2{fill:#fff;}.cls-3{fill:none;}</style></defs><title>2</title><g id="Layer_2" data-name="Layer 2"><path class="cls-1" d="M60,1c-1.44,0-4.25.15-4.37.16.55.15-42.09,22-42.09,21.79a.33.33,0,0,1-.07.18A60,60,0,0,0,9.4,93.22s15.14,14.6,15,16A59.71,59.71,0,0,0,60,121a60.52,60.52,0,0,0,13.55-1.55c-.08-.48-.15-1-.21-1.42l-.79-5.53c-.24-1.51-1.48-11.79-1.48-11.79v0l1.32-.51s1.73.07,1.69.08,1.76,10.34,2.06,12.13l.33,1.9c.13.77.24,1.53.4,2.31s.21,1.28.3,1.91c1.42-.43,2.83-.91,4.2-1.43-.21-1.18-.44-2.39-.46-2.57l-.7-4.21c-.94-4.34-1.54-7.56-2-9.7-.07-.31-.18-.85-.18-.85l1.35-.55,1.79.14s2.28,10,2.85,13l.65,3.36c1.22-.55,2.43-1.14,3.6-1.77l-.37-1.72-.14-.59C87,108.22,85,98.83,85,98.83l1.63-.64,1.59.23h0s2,8.65,3.37,13.57a58.91,58.91,0,0,0,6.52-4.66s19-28.44,19.13-28.35A60,60,0,0,0,60,1Z" transform="translate(0 0)"/></g><g id="Layer_6" data-name="Layer 6"><path class="cls-2" d="M75,30.86S67.54,16.73,64.48,14.61a18.81,18.81,0,0,0-11.57-3c-4.42.55-14.52,5.9-15.19,6.08,0,0-3.77,4.7-4.75,9.49-.22,1.06-4.1,18-4.1,18l7.38,21.31L62.53,79.05l9.63-10.49A109.52,109.52,0,0,1,76,50.39c2.59-7.78,1.77-12,1.77-12Z" transform="translate(0 0)"/></g><g id="Layer_4" data-name="Layer 4"><path class="cls-2" d="M45,85.17l-.22.09.22-.09" transform="translate(0 0)"/><path class="cls-2" d="M44.79,85.26Z" transform="translate(0 0)"/><path class="cls-2" d="M42.84,44.59a8,8,0,0,1-.91.4.69.69,0,0,0-.43.73c.08.41.19.54.23.86a2.87,2.87,0,0,1-.47,1.51A3.66,3.66,0,0,1,40,49.38a6.32,6.32,0,0,1-.7.33s-.07.12-.11.31h0a.26.26,0,0,1,.09-.05c.07,0,.21,0,.34-.06l.26-.05.38-.06a8.17,8.17,0,0,0,1.46-.44,6,6,0,0,0,2-1.36,4.15,4.15,0,0,0,.93-2.21c0-.18,0-.29,0-.29h0a.4.4,0,0,1-.23-.08,5.19,5.19,0,0,1-.7-.67.56.56,0,0,1-.11-.79l0,0a4,4,0,0,1-.8.61" transform="translate(0 0)"/><path class="cls-2" d="M64.88,41.77a1.45,1.45,0,0,0-.33.06.57.57,0,0,0-.28.18.44.44,0,0,0,.08.54,1.65,1.65,0,0,1,.41,1,3,3,0,0,1-.15,1,6.27,6.27,0,0,1-.54,1,2.77,2.77,0,0,0-.53.84.34.34,0,0,0,0,.2h0a.13.13,0,0,1,0-.07,1.59,1.59,0,0,1,.64-.32,3.23,3.23,0,0,0,1-.5.39.39,0,0,0-.06.11.48.48,0,0,1,.12-.17,4.52,4.52,0,0,0,2-3.24c0-.72-.92-.82-1.31-.83s-.84.26-1.07.2h0a0,0,0,0,1,0,0" transform="translate(0 0)"/><path class="cls-2" d="M45.94,55.07S53,57.26,56.39,53.33s9.22,2.08,9.59,3.86S57.21,63.88,54.44,64s-13.72-1.36-13.72-2.49S45.94,55.07,45.94,55.07Z" transform="translate(0 0)"/><path class="cls-2" d="M75,27C73.82,15.07,68.34,9.09,64.4,6.19c-4.15-2.73-14-5.13-18.65-4.91C40.27,1.53,27.62,7.51,27.13,8s-9,14.62-7.91,17.16,2.54,14.51,3,15.47c.14.29,2.56,8.09,4.16,7.8s3.11-7.41,3-8c-.2-1.57-3.05-8.64-2.83-9.64S34.45,17.86,35,17.44c.38-.29,13.44-1.91,13.52-1.79h0c.91-.8,3-2.89,4.92-2.82s7.3.76,10.35,2.88A11.48,11.48,0,0,1,68,20.48h0c.1,0,4.36,9.68,5.6,9.72C74.46,30.22,75.08,28.42,75,27Z" transform="translate(0 0)"/><path class="cls-2" d="M69.66,34.91c-.46.06-1.7.17-1.83.19s-.24.17-.23.27.06.51.07.69a.33.33,0,0,0,.38.26c.19,0,1.38-.12,1.56-.15S70,36,70,35.86s0-.51,0-.66a.27.27,0,0,0-.28-.29" transform="translate(0 0)"/><path class="cls-2" d="M20.31,91.91l.73.17-1.47-.34a3,3,0,0,0-.74-.06,3.94,3.94,0,0,0-1.64.37c-.64.31-4.71,2.38-6.41,3.24a60.4,60.4,0,0,0,6.52,7.84c.15-.61,2.81-3.41,3.19-5,.51-2.25-.77-5.22-.18-6.17" transform="translate(0 0)"/><path class="cls-2" d="M88.22,98.42,85,98.84s2.32,10.67,2.94,13.34l.37,1.72c1.12-.6,2.21-1.24,3.29-1.91-1.33-4.92-3.38-13.57-3.38-13.57Z" transform="translate(0 0)"/><polygon class="cls-3" points="68.8 90.6 68.47 89.67 68.1 89.67 68.1 90.97 68.34 90.97 68.34 89.93 68.7 90.97 68.9 90.97 69.26 89.93 69.26 90.97 69.5 90.97 69.5 89.67 69.13 89.67 68.8 90.6"/><polygon class="cls-3" points="66.79 89.89 67.21 89.89 67.21 90.97 67.46 90.97 67.46 89.89 67.88 89.89 67.88 89.67 66.79 89.67 66.79 89.89"/><path class="cls-2" d="M106.85,55.69a5.84,5.84,0,0,0-2.52,4.55c0,2.45,2,4.82,6.6,4.81a19.62,19.62,0,0,0,3.07-.28c.27,0,.53-.09.78-.15l.54-2.28a10.74,10.74,0,0,1-2.93.55c-2.45,0-4.1-1.45-4.1-3.36A3.28,3.28,0,0,1,109.46,57,5.25,5.25,0,0,1,113,55.85a3.11,3.11,0,0,1,2.35.79,2.26,2.26,0,0,1,.25.29h.39l.75-2.7a11.72,11.72,0,0,0-9.84,1.46" transform="translate(0 0)"/><path class="cls-2" d="M103,56.07a1.22,1.22,0,0,1,.79.28.6.6,0,0,1,.25.43h.38l.73-2.93h-10l-.15.57,0,.14a.87.87,0,0,1,.75,1.21l-2.48,9h5l.18-.78A.87.87,0,0,1,97.77,63c0-.05.36-1.34.57-2.11l.16-.57h2.27a2.5,2.5,0,0,1,.88.15,1.36,1.36,0,0,1,.63.44l.66-2.68H99.11l.41-1.53.16-.58Z" transform="translate(0 0)"/><path class="cls-2" d="M90.91,63.19c-.29-.32-2.85-4.3-2.85-4.3l4.52-3.62.15-.12a4,4,0,0,1,.56-.38,1.61,1.61,0,0,1,.79-.21l.19-.72H88.45l-.14.57,0,.14c.4,0,1,.38.5.8L84.1,58.94l0-.13,1-3.47a1.15,1.15,0,0,1,1-.78l.18-.71H80.67l-.14.57,0,.14a.87.87,0,0,1,.76,1.21c-1.85,6.7-1.64,6-1.76,6.4-.42,1.58-1,1.8-1.41,1.84h-.21l-.07.3-.12.48h5.81l.19-.79s-.92-.18-.75-.84c.09-.34.33-1.19.53-1.93s.38-1.36.38-1.36a41.53,41.53,0,0,0,2.45,3.48c1.12,1.54,2.31,1.47,5.2,1.45h.74l.19-.77a2.11,2.11,0,0,1-1.51-.84" transform="translate(0 0)"/><path class="cls-2" d="M118.29,54a.7.7,0,0,0-.52-.22.67.67,0,0,0-.52.22.74.74,0,0,0,0,1,.67.67,0,0,0,.52.22.73.73,0,0,0,.73-.74.69.69,0,0,0-.21-.51m-.08,1a.58.58,0,0,1-.44.19.58.58,0,0,1-.45-.19.61.61,0,0,1-.18-.45.6.6,0,0,1,.18-.44.6.6,0,0,1,.45-.19.65.65,0,0,1,.63.63.58.58,0,0,1-.19.45" transform="translate(0 0)"/><path class="cls-2" d="M118.1,54.38a.19.19,0,0,0-.12-.2.69.69,0,0,0-.22,0h-.29V55h.14v-.31h.11l.17,0a.23.23,0,0,1,.07.19v.09h.14s0,0,0,0v-.12a.21.21,0,0,0,0-.12.22.22,0,0,0-.14-.08.34.34,0,0,0,.12,0,.19.19,0,0,0,.08-.16m-.22.14-.14,0h-.13v-.29h.12a.42.42,0,0,1,.18,0,.14.14,0,0,1,0,.12.13.13,0,0,1-.08.12" transform="translate(0 0)"/><path class="cls-2" d="M110.13,76.62c-7.65-2.33-23.35-1.78-23.35-1.78l12.84,30.25s1.19-.59,1.33-.27A59.94,59.94,0,0,0,116.57,81C116.31,80.8,117.78,78.94,110.13,76.62Z" transform="translate(0 0)"/><polygon class="cls-3" points="69.5 89.83 69.5 89.67 69.37 89.67 69.5 89.83"/><polygon class="cls-3" points="69.5 89.83 69.5 89.67 69.37 89.67 69.5 89.83"/><path class="cls-2" d="M84.05,112.31c-.57-3-2.85-13-2.85-13s3-.79,3.73-2.52-.89-4.41-1-5.46c-.33-3.14-1.56-16-3.58-18.67-1.18-1.55-6.6-4.61-7-4.59-2,.08-5.84,8.56-9.09,9.33-2.17.51-3.7-1.6-3.35-1.44h0a5.86,5.86,0,0,0-.36-1.38A15,15,0,0,0,59.28,72c-.13-.27-.55-.86-.56-.93a8.44,8.44,0,0,1-.27-1.14,9.66,9.66,0,0,1-.1-2.32,3.53,3.53,0,0,1,0-.38.13.13,0,0,0-.07-.15.43.43,0,0,0-.42.13c-.38.38-.39.46-.4.52a2.46,2.46,0,0,1,0,.31,2.31,2.31,0,0,1-.3,1c-.19.31-.31.42-.58.39s-.49-.24-.53-.79a1.33,1.33,0,0,0-.25-.88.64.64,0,0,0-.45-.19c-.09,0-.16.07-.75.22A11.52,11.52,0,0,1,53,68l-.65.06c.11.4-2.12-.21-2.5.09-.77.61-1.13,4.6-1.5,6.67h0L35.77,76.1,31.36,86.35s1.33,20.28,1.33,20.59,27.87-6,27.87-6l10.51-.22v0c.08.61,1.24,10.29,1.48,11.8l.79,5.53c.06.47.13,1,.21,1.41,1.22-.28,2.43-.59,3.62-1-.1-.62-.2-1.25-.31-1.9s-.26-1.54-.39-2.31l-.33-1.9c-.3-1.79-2.07-12.13-2.07-12.13l1.85-1.17,2.14.66c0,.26.11.54.18.85.44,2.15,1,5.36,2,9.7l.7,4.21c0,.18.25,1.39.46,2.57,1.13-.43,2.23-.9,3.33-1.39Z" transform="translate(0 0)"/></g><g id="Layer_5" data-name="Layer 5"><path class="cls-2" d="M63.17,35.47c-2.32.34-5.7,2.24-5.55,3.62.09.86,4.94,1,7.12,1.15s2.54-2,2.42-3.09S65.61,35.11,63.17,35.47Z" transform="translate(0 0)"/><path class="cls-2" d="M79,72.7c-1.15-.12-.61,1.75-.63,1.94h0C79,76.84,79.45,79,79.82,81a3.23,3.23,0,0,0,.05.5c.16.87.5,3.67,1.16,10,.15,2.11.29,4.3.37,6.15.06,0,3.94.22,3.94.22A93.39,93.39,0,0,0,84,85.63C82.78,78.82,81,72.9,79,72.7Z" transform="translate(0 0)"/><path class="cls-2" d="M68.55,55.59a2.62,2.62,0,0,0-.34-2A5.08,5.08,0,0,0,66.53,52c-.75-.5-2.44-2-2.6-2.13s-1-.88-1.14-1A7,7,0,0,0,61.43,48a4.24,4.24,0,0,0-3.6-.22,6.71,6.71,0,0,0-.63.54c-.27.26-.07.76,0,.94,0,0,10.4,7.63,10.42,7.8h0a3.15,3.15,0,0,0,.88-1.46" transform="translate(0 0)"/><path class="cls-2" d="M64.25,46.2a1.45,1.45,0,0,0-.64.33s0,0,0,.06a.13.13,0,0,0,0,.06v0s0,0,0,.05l0,.06,0,0,.06.07,0,0,.09.08,0,0,.11.09,0,0,.14.09h0l.15.1a.43.43,0,0,0,.21,0l.3,0A5.72,5.72,0,0,0,66,46.92h0a10.56,10.56,0,0,1-.72-1.22,3.23,3.23,0,0,1-1,.5" transform="translate(0 0)"/><path class="cls-2" d="M50.28,53.33l.08,0h0a.64.64,0,0,1-.22-.39,4.51,4.51,0,0,0-.25-.64,9.23,9.23,0,0,1-.46-1,3.4,3.4,0,0,1-.19-.87,3.58,3.58,0,0,1-.11-1.21c0-.41.13-.87.38-2.17a14.23,14.23,0,0,0-.11-2.75c0-.71-.07-2.44,0-4.18h0c-.13,0-15.61-3.29-15.51-3.3h0a31.16,31.16,0,0,0,0-4.32c.4-3.93,1-8.48,2.4-11.51a23.1,23.1,0,0,1,1.46-2.66.48.48,0,0,0,.07-.21,4.28,4.28,0,0,0,0-.46h0s-3.8-1.05-8.5,9.73c-2,4.52.65,15.81.65,15.81L34,44.58l2.66-1.45,6.3-1.29,2.58,1.26-.8,2.41h0a1.6,1.6,0,0,1,0,.29A4.07,4.07,0,0,1,43.75,48a6,6,0,0,1-2,1.36,8.17,8.17,0,0,1-1.46.44l-.38.06-.26.05c-.13,0-.27,0-.34.06a.26.26,0,0,0-.09.05.19.19,0,0,0-.07.11v0a.21.21,0,0,0,0,.11,1,1,0,0,0,.18.34.87.87,0,0,0,.94.3,15.29,15.29,0,0,0,1.66-.46,6.5,6.5,0,0,0,1.23-.52l.41-.31h0a1.07,1.07,0,0,1,.16-.14s0,0,.06-.06h0c.08,1-1.13,4.06-1.13,4.06s-2.84,1-2.66.87h0a.8.8,0,0,1-.92,0s-.33-.39-.74-.91c-.24-.31-.52-.66-.76-1a7.1,7.1,0,0,1-.39-.61,3.29,3.29,0,0,1-.28-.61v0a3.49,3.49,0,0,1-.14-.52,7.76,7.76,0,0,1-1.55-.37h0s-3.51.82-3.51.82l3.67,15s6.87,10.79,11.17,8.7c.64-.31,1.76-2.49,1.3-3.24S40.1,58.69,40.1,58.69,50.18,53.29,50.28,53.33Z" transform="translate(0 0)"/><path class="cls-2" d="M64.23,94.05a14.47,14.47,0,0,0,3.28,1.72A2.18,2.18,0,0,0,69.74,95l0,0h0s-7.32-5.69-8.27-6c-.34-.12-2.2.56-2,.91s1.11,1.24,1.14,1.28c1.27,1,2.86,2.3,3.61,2.92" transform="translate(0 0)"/><path class="cls-2" d="M48.74,83.51l-12.18-7s.36,3.45.35,3.51h0a27.91,27.91,0,0,0,2.5,1.9,7.32,7.32,0,0,1,.77.56c.15.16,1.65,1.23,1.76,1.31s1.74,1,2.72,1.5c0,0-.68.57-.67.55a4,4,0,0,0-1,.3c-1.71,1-.69,3-.53,4.35.32,1.17.74,3.2,2.25,3.39,1.16.14,3.81-.58,5.21-.87.19-.35,2.22-.48,2.2-.45a5.34,5.34,0,0,1,1-.25c.09,0-.32.45-.55.89a62.36,62.36,0,0,1-3,7,8.61,8.61,0,0,0-.51,1.23h0l2.74.63L56.2,90.85Z" transform="translate(0 0)"/><path class="cls-2" d="M34.92,92.27c.48.88,1.84,2.72,1.91,2.82s.36.42.7.81.65.72.73.82.73.77.9.92.36.47.5.6c.48.43,2.25,2,2.42,2.1a7.47,7.47,0,0,0,1.17.71,2.43,2.43,0,0,0,2.42-.88.69.69,0,0,0,.09-.71A35.37,35.37,0,0,1,36,86.6c-.15-.33-1.5-2-2.74-1-1,.81-.28,2.76-.28,2.76h0c.38.8,1.54,3.12,1.94,3.87" transform="translate(0 0)"/><path class="cls-2" d="M23.41,93.11c.39-1.47-2.87-1.14-3.1-1.2-1,1.65-2.09,7.22-2.64,9.84-.1.29-.22.76-.37,1.38.74.76,1.51,1.5,2.29,2.22C20.16,103.14,23.3,93.5,23.41,93.11Z" transform="translate(0 0)"/></g><g id="Layer_1-2" data-name="Layer 1"><path class="cls-1" d="M118,54.94h0" transform="translate(0 0)"/><path class="cls-1" d="M110.57,76a98.55,98.55,0,0,0-11.91-1.79c-5.79-.53-10.54-1-11.19-1s-.81-.61-1.35-.88c-2-1-5.68-1.9-8-2.72-.58-.2-1-.71-1.75-1.67a9.45,9.45,0,0,0-1.22-1.23c-.25-.23-.79-.69-.93-.8s-.24-.44-.12-1.07a34.47,34.47,0,0,0,.47-6,1.55,1.55,0,0,1,.7-1.46c.19-.1,1.47-.66,1.38-1.91a10.26,10.26,0,0,1,.54-5.52,35.58,35.58,0,0,0,2.36-9.54c.16-3-.6-5-1.78-6A1.9,1.9,0,0,1,77.2,32c.48-1.41,1.34-5.26.49-7.81-.19-.56-.4-.57-.53-.64a2.4,2.4,0,0,1-1-1.57,28.07,28.07,0,0,0-5.09-11.2,23.75,23.75,0,0,0-5-4.82,30.28,30.28,0,0,0-2.84-1.75,32.15,32.15,0,0,0-6-2.55c-.27-.09-.87-.27-1.66-.48h0a39.34,39.34,0,0,0-5-.94L48.91.06a24.81,24.81,0,0,0-5,.15l-.45.06-.86.12A42.47,42.47,0,0,0,32.25,4c-1.15.54-2.17,1.11-3.1,1.64l-.08.05c-.24.15-.62.36-1,.56-.58.32-1.13.63-1.66.89a33.84,33.84,0,0,1-4.16,1.58l-.48.17c-.76.3-1.25.61-1.34,1.11-.16.91.91,1.76.53,3.21-.94,3.57-5,7-5.61,7.39-1.88,1.14-1.76,1.93-1.83,2.34a2.93,2.93,0,0,0,.29,1.25c.63,1.32,1.78,2.45,2.34,3.64a10.14,10.14,0,0,1,.47,5.74,14,14,0,0,1-.74,3.32,2.27,2.27,0,0,0-.05,2.29,10.6,10.6,0,0,0,2.58,2.63c.41.32.63.61.32,1.18a6.78,6.78,0,0,0,.1,4.37,25.78,25.78,0,0,0,2.34,4.84,26.61,26.61,0,0,0,3,3.82,3.55,3.55,0,0,1,.92,2.72A4.45,4.45,0,0,0,27.21,63c1.1.67,1.19.5,1.6.83a2.25,2.25,0,0,1,.87,1.37A22.46,22.46,0,0,0,33,71.33a10.44,10.44,0,0,1,.85,1.17c.07.1.16.22-.06.73a66.43,66.43,0,0,0-1.8,6.5,2.2,2.2,0,0,1-1,1.64c-.7.33-2.26,1.2-2.83,1.51a4.09,4.09,0,0,0-1.52,1.31c-.29.36-.5.58-.69.8s-.15.21-.71.5A98.35,98.35,0,0,0,9.94,92.91l-.54.31c.45.7.9,1.39,1.38,2.07L17.19,92a4.09,4.09,0,0,1,1.64-.36,3,3,0,0,1,.74.06l1.47.34.15,0,.1,0,.61.15h0l.21.06c.49.16.75,1.07.48,1.9L22.2,95.7,21.82,97l-.45,1.62c-.56,2-1.21,4.48-1.78,6.69a61.27,61.27,0,0,0,4.76,3.9c.19-1.43.38-2.92.53-4,.4-2.83,2.66-13.31,3.29-15.7.47-1.73.71-2.52,1.32-2.79.18-.08.39-.2.51-.26s.38-.12.3.34-.56,2.77-1.25,10a81.54,81.54,0,0,0-.32,12.11c.07,1.13.09,2.74,1.83,2,2-.81,9-3.29,12.65-4.43a213.83,213.83,0,0,1,27.86-5.87l3-.43s1.76,10.34,2.07,12.13l.33,1.9-.33-1.9c-.31-1.79-2.06-12.13-2.06-12.13l1.26-.17,2.72-.34,3.14-.41,3.8-.48s2,9.38,2.79,12.75l.14.59.37,1.72h0l-.38-1.72C87.31,109.51,85,98.84,85,98.84l3.22-.42c1-.12,2.16-.27,2.52-.29.76,0,1.09-.46.51-.63a10.07,10.07,0,0,0-1.87-.23h-.72c-.75,0-1-.16-1.12-1.26A146.16,146.16,0,0,0,84,80.61c-1.25-4.06-1.56-5.23-1.86-6.12s.25-.82.49-.8A3.12,3.12,0,0,1,85.16,75c.79,1.73,6.25,16,8.44,21.35,1.39,3.36,3,7.4,4.52,11,1-.8,1.91-1.65,2.83-2.51C98.12,98.6,91.82,84.5,88.5,77.36a9.82,9.82,0,0,1-.37-.92.6.6,0,0,1,0-.22c0-.45.61-.51.91-.48,1.17.11,11.83.82,14.74,1.09,1.92.18,3.83.48,5.11.71l.78.14c.27.06.48.1.61.14a22.06,22.06,0,0,1,4.17,1.74A15.52,15.52,0,0,1,116.57,81c.23-.67.47-1.34.68-2a20.14,20.14,0,0,0-1.8-1.11A19.27,19.27,0,0,0,110.57,76M23.79,40.63c-.29.12-.55.15-.75-.24a13.91,13.91,0,0,1-1-3.79,50.87,50.87,0,0,1-.3-6.23,5.24,5.24,0,0,0-.93-3.7,18.6,18.6,0,0,1-1.22-1.75c-.2-.37-.07-.62.31-.89.19-.13.57-.06.86-.12a11.66,11.66,0,0,0,4-1.95A49,49,0,0,1,30,17.79a9.27,9.27,0,0,1,4.07-1.45c.32,0,.8.14.26.55A11.67,11.67,0,0,0,30,21a18,18,0,0,0-1.86,3.82,6,6,0,0,1-1.41,1.77,4.39,4.39,0,0,0-1.16,2A28.51,28.51,0,0,0,25,38.42c.06.62.31,1.44-.27,1.74-.35.19-.66.34-.95.47m2.5,7.15A10.78,10.78,0,0,1,24.11,44c-.07-.2-.14-.71.19-.85s.64-.33.82-.42.67-.22.73.47a11.4,11.4,0,0,0,.91,3.51,6.27,6.27,0,0,1,.21.62.46.46,0,0,1-.68.5m2.57-6.45c-.08,0-.95.12-1.41.2-.29.06-.59.17-.62-.11s-.14-.74-.16-.85a.2.2,0,0,1,.17-.26c.34-.08,1.67-.31,1.8-.31s.26,0,.31.3.12.56.13.67.05.32-.22.36M29.34,37a6.38,6.38,0,0,1-.16-1.52,1.55,1.55,0,0,1,.27-.84,7.34,7.34,0,0,1,.93-.83c.46-.37.36-1.34.39-1.9.11-1.61,0-6.71,3.27-11.58.13-.19.26-.36.38-.52l.12-.14c.1-.11.19-.22.29-.32l.12-.13.36-.32s0,0,0-.05l.4-.3.14-.09.28-.16.16-.09.31-.15.12-.05a3.25,3.25,0,0,1,.4-.15l.18-.06.27-.08.09,0h0c.68-.18,1.37-.28,2.06-.4a13.1,13.1,0,0,1,5.45.35c.94.3,1.41.53,1.73.23s1.13-1.23,1.48-1.56a.36.36,0,0,0,.11-.14l0-.06,0-.1V16a.34.34,0,0,0,0-.1.13.13,0,0,0,0-.06.38.38,0,0,0-.06-.13,1,1,0,0,0-.35-.34,18.33,18.33,0,0,0-9.41-3.17,27.19,27.19,0,0,0-10.26,2,1.35,1.35,0,0,1-.46.12c-.13,0-.57-.15-.4-.47a5.32,5.32,0,0,1,1.09-1.29A22.25,22.25,0,0,1,34,8.81c.44-.19.54-.27.82-.38s.57-.94-.22-.95A7.35,7.35,0,0,0,33,7.64c-.43.07-.66-.12-.39-.49a5.25,5.25,0,0,1,1.75-1.29A36.89,36.89,0,0,1,42,3.14a20.28,20.28,0,0,1,4.17-.64,25.61,25.61,0,0,1,3.16,0A28.69,28.69,0,0,1,63.51,7c3.94,2.9,9.61,7.73,10.74,19.65a10.33,10.33,0,0,1,0,2.6c0,.36-.45,1-.81.27a72.34,72.34,0,0,0-5-8.75.56.56,0,0,0-.35-.28.14.14,0,0,0-.11,0l0,0a.1.1,0,0,0,0,.06l0,.05a.28.28,0,0,0,0,.09.17.17,0,0,0,0,.07.71.71,0,0,0,0,.2c0,.22.7,3.45.73,3.9s-.19,1.55,1.48,3.59a6.68,6.68,0,0,1,1.6,2.78A18.12,18.12,0,0,1,72,33.14c0,.13.15.49-.44.5s-2.84-.17-3.8-.14-7.61.67-10.08,1.2-3.81,1.15-5.08,2.48a3.35,3.35,0,0,1-.83.65,5.64,5.64,0,0,1-1,0,6.12,6.12,0,0,0-2.29.37,1.84,1.84,0,0,1-1.68.22c-1-.4-2.69-2.23-7.1-2a55.27,55.27,0,0,0-5.85.48l-.33,0-.22,0-.12,0c-.75.13-1.6.28-2.64.49l-.44.08a.58.58,0,0,1-.76-.53M70,35.86c0,.14-.17.28-.35.31s-1.36.14-1.55.15a.33.33,0,0,1-.38-.26c0-.17,0-.58-.06-.69s0-.24.22-.27,1.37-.13,1.83-.19a.28.28,0,0,1,.29.29v.66M64.4,37.19a7.68,7.68,0,0,0-1.4-.81c-.27-.09-.18-.43.21-.49a4.21,4.21,0,0,1,2.85.22,1.35,1.35,0,0,1,.67,1.41c-.18.59-.41.46-.7.45a5.34,5.34,0,0,1-1.63-.78m.77,2.61c-.23.16-1,0-1.28-.09a9.41,9.41,0,0,1-1.78-.89,2.93,2.93,0,0,0-2.22-.26c-.52.16-.94.29-1.4.47s-.55-.24-.43-.42a4.56,4.56,0,0,1,1.81-1.4,3.39,3.39,0,0,1,.82-.12,3.43,3.43,0,0,1,2,.71,14.61,14.61,0,0,0,2.15,1.4c.28.12.91.21.35.6M46,60.55c-2.33.82-3,0-3.19-.25s0-.48.29-.59a7,7,0,0,0,1.67-1.19c.38-.36,1.11-1.63,1.64-2.08A3.06,3.06,0,0,1,49,56.25a8.61,8.61,0,0,0,4.25.49,2.39,2.39,0,0,0,1.85-1.5c.25-.51.87-.69,1.19-.83a9,9,0,0,0,2.19-1.7c.12-.13.48-.31,1.07,0a10.8,10.8,0,0,1,2.58,2.57,3.83,3.83,0,0,0,2.49,1.32.74.74,0,0,1,.58.52,1.47,1.47,0,0,1-.48.65c-.22.16-.33.44-2.22.49C53,58.52,48.76,59.57,46,60.55m12.84,1.14a16.52,16.52,0,0,1-3.06,1.08c-.84.16-3.48.7-3.93.73a3.24,3.24,0,0,1-2-.58c-.14-.1-.33-.46.17-.53a33.93,33.93,0,0,1,7.77-1.1l1,0c.14,0,.64.16.07.45m-12.46,12c-1.88.31-6.88-1.16-10.14-9.19-.84-2.06.08-4.12.89-4.53a4.24,4.24,0,0,1,.9-.38.86.86,0,0,1,1.13.8c.07.77,1.58,7.13,3.6,9.24.5.52.89.49,1,0s.33-1.15.39-1.39.54-.72.81,0a39.64,39.64,0,0,0,1.79,4.13c.46.75.31,1.28-.39,1.4m.37-21a1.82,1.82,0,0,1,.27.89c0,.22-.79.64-1.6-.27a2.42,2.42,0,0,1-.32-2.69c.54-.85,1.58-.43,1.48-.13a2.69,2.69,0,0,0,.17,2.2m-6-11.75a5.1,5.1,0,0,0-2.35.31,12.86,12.86,0,0,0-2.6,1.4,3.67,3.67,0,0,1-1.43.54c-.2,0-1-.08-.44-.63.14-.15.47-.26,1-.63s.62-.45,1-.8a8.35,8.35,0,0,1,2.87-1.6,2.66,2.66,0,0,1,1.82.44c.53.43.73,1,.12,1M30.32,42a2.42,2.42,0,0,1,1.41-1.74c.12,0,.58-.19.95-.29s.93-.21,1.18-.25c.66-.12.79.39.38.71s-.71.5-1.09.81c-.58.48-1.14,1-1.58,1.37s-1.38.2-1.25-.61m3.1,11.34h0c-.16-.23-.31-.47-.46-.72l-.09-.16a7.49,7.49,0,0,1-.38-.81c-.2-.54.14-.62.37-.5a6.21,6.21,0,0,0,1.6.66.63.63,0,0,0,.8-.43,1.54,1.54,0,0,1,0-.17.16.16,0,0,0,0-.09.14.14,0,0,0,0-.06l0-.1a.43.43,0,0,1,0,0s0-.07,0-.11v-.06a.34.34,0,0,0,0-.1.07.07,0,0,0,0-.05.56.56,0,0,0,0-.12,0,0,0,0,1,0,0l-.1-.12a.83.83,0,0,0-.21-.12,6.42,6.42,0,0,1-3.69-3.26.58.58,0,0,1,.12-.74c.13-.1.59-.4.81-.53a.74.74,0,0,1,.83.09,2.65,2.65,0,0,0,1.48.65A.67.67,0,0,0,35.2,46a4.27,4.27,0,0,1,3.71-2.36c1,0,2,.08,2.29.06a5.23,5.23,0,0,0,2.23-.6c.69-.48,1-.14.58.38l-.16.22a.18.18,0,0,0-.05.07l-.15.2a.57.57,0,0,0,.12.79,5.19,5.19,0,0,0,.7.67.38.38,0,0,0,.23.08l.12,0h.06a.84.84,0,0,0,.19-.12,4,4,0,0,0,.65-.65c.17-.21.31,0,.27.33a6,6,0,0,1-1.73,4c-.06.06-.19.18-.36.32l-.13.11-.06.06-.17.15-.15.14-.14.15-.09.1-.18.22-.06.07c-.06.09-.13.18-.19.28a2.82,2.82,0,0,0-.21.38A4.22,4.22,0,0,0,42,52.79c-.05.38-.35.54-.69.69a10,10,0,0,0-1.35.86h0l-.55.44-.1.09a6.26,6.26,0,0,0-.52.51l-.34.31-.11.08-.24.16L38,56l-.25.11-.13,0-.06,0-.16,0a.69.69,0,0,1-.2,0H37l-.19,0-.22,0-.19,0L36.17,56l-.2-.1h0a2.7,2.7,0,0,1-.36-.26c-.32-.28-.67-.59-1-.94l0,0,0,0c-.18-.18-.36-.37-.53-.57,0,0-.41-.5-.58-.73m21.7,38.07a34.9,34.9,0,0,1-2.31,6.52l-.34.78a1.3,1.3,0,0,0-.08.17c0,.1-.09.2-.13.29v0l-.19.4h0s0,0,0,.05a.83.83,0,0,0-.07.13c0,.06-.06.12-.1.18h0s0,0,0,0l-.08.13v0h0l-.06.09,0,0h0l-.08.13s0,0,0,0l-.09.13h0l-.09.11s0,0,0,0l-.1.11a0,0,0,0,0,0,0l0,0h0s0,0,0,0,0,0,0,0a.39.39,0,0,1-.1.08h0a.24.24,0,0,1-.09.06s0,0,0,0h0l-.07,0h0l-.1,0h0l-.11,0c-.36.08-.74.14-1,.17l-.28,0-.3,0h0c-2.6.44-9.65,1.65-12.93,2.31-2.17.43-2-.66-2.5-2.63A62.79,62.79,0,0,1,33,88.39c.14-1.53.2-2,.48-2.15a7.11,7.11,0,0,1,.82-.48c.12,0,.49-.13.67.19s3.34,6.74,5.41,9.07A25.67,25.67,0,0,0,45,99.61a1.17,1.17,0,0,0,.27.14h0l.1,0h.11a.23.23,0,0,0,.12-.06v0a.33.33,0,0,0,.07-.13v0a1.09,1.09,0,0,0-.3-.84,38.6,38.6,0,0,1-3.62-4.48,37.39,37.39,0,0,1-4.49-10.1,16.08,16.08,0,0,1-.42-4.06h0v-.17s0-.08,0-.12,0-.18,0-.27l0-.36A.68.68,0,0,0,37,79a2.23,2.23,0,0,0,0-.23s0-.08,0-.12.05-.19.08-.28c.37-1.07.69-1,1-.59a30.16,30.16,0,0,0,8.26,5.29,11.72,11.72,0,0,1,1.82.84c.14.15.37.46-.08.57a14.53,14.53,0,0,0-3.14.7l-.22.09a1.46,1.46,0,0,0-.81.67.58.58,0,0,0,0,.14.36.36,0,0,0,0,.1.92.92,0,0,0,0,.16.41.41,0,0,0,0,.11,1.49,1.49,0,0,0,0,.21c0,.12,0,.25,0,.38.07.75.2,1.29.3,2.29s0,1.91.52,2.33,1.16.67,2.94.32,2.25-.47,2.45-.48.67-.08.38.47l-.11.2a20.55,20.55,0,0,0-1.65,3.29,12.94,12.94,0,0,0-.46,1.66c0,.2.11.58.46.15a30.43,30.43,0,0,1,2.78-4c.23-.27.44-.5.64-.72h0l.45-.46a.57.57,0,0,1,.11-.11l.33-.33.08-.07a7.84,7.84,0,0,1,.68-.56l.06,0,.21-.14.06,0,.19-.11,0,0h0l.19-.1c.48-.24.61.1.47.87M58,100.21c-.27.06-1.48.25-1.66.25s-.34-.17-.26-.3a9.35,9.35,0,0,0,1.36-3.08c.07-.31.26-.52.39-.08s.47,1.91.55,2.51c0,.11.08.59-.38.7m.51-15.3c-.79.29-1.67-.59-2.38-1.07a19.43,19.43,0,0,1-4.28-3.62C50,78,50.16,76.39,50.7,73.47a8.22,8.22,0,0,0-.45-4.3c-.15-.27,0-.55.45-.35A5.43,5.43,0,0,1,52,70.22c.44.54.54.15.58-.22a5.22,5.22,0,0,0-.21-1.94h0s0,0,0-.07a1.18,1.18,0,0,0-.75-.86A4.81,4.81,0,0,1,50,66.7c-.16-.11-.33-.34-.16-.5a3.78,3.78,0,0,1,1.22-.87A5.71,5.71,0,0,1,53,64.82c5.1,0,6.48-1.15,8.42-2a1.19,1.19,0,0,1,.94-.12,3,3,0,0,1,1.45.82c.22.4.26,2.06.7,3.25s1.16,0,1.32-.55a12.07,12.07,0,0,0,.22-2.05,4.25,4.25,0,0,1,.51-2.06,4.81,4.81,0,0,0,1.1-2.3,9.2,9.2,0,0,0,0-2.8c0-.18,0-.37-.08-.56-.27-1.73-.62-1.87-1.09-2.19a10.93,10.93,0,0,1-2.16-1,25.32,25.32,0,0,1-2.85-2.81A6.07,6.07,0,0,0,58,48.79h-.43l-.11,0,0,0-.07,0,0,0a.1.1,0,0,0,0,0l0,0s0,0,0,0a.14.14,0,0,0,0,.07v.13h0a3.5,3.5,0,0,0,.33.9c.08.23.3.93-.08,1.33s-2.64,2.42-4.75,2.37a6.57,6.57,0,0,1-2.42-.5h0l-.08,0a4.73,4.73,0,0,1-.45-.23l-.08,0a5,5,0,0,1-.45-.29l-.13-.09-.3-.25-.09-.08c-.12-.11-.22-.22-.32-.32L48.39,52l-.22-.26-.06-.08-.2-.31,0,0L47.75,51l0-.07a1.36,1.36,0,0,1-.09-.23c-.31-.92.45-3.11.43-4.68,0-.68-.15-2-.26-2.92a4.59,4.59,0,0,1,.6-2.44,1.08,1.08,0,0,1,.22-.19l.07,0A1.06,1.06,0,0,1,49,40.3l0,0,.34-.12h0c.19-.06.41-.13.64-.18a1.63,1.63,0,0,1,1.85.83c.79,2.16,1.66,2.61,1.95,2.76s.76-.29.94-.45.63-.73.43-1a3.65,3.65,0,0,1-.56-.87c-.14-.41.39-.41.52-.36a7.57,7.57,0,0,0,3.93.77,23.37,23.37,0,0,0,4.27-1.07,1.27,1.27,0,0,1,.9.39,1.11,1.11,0,0,1,.11.16c.16.24.37.55.55.61h0a9.23,9.23,0,0,0,1.07,0c.4,0,1.08-.13,1.06.6a4.55,4.55,0,0,1-1.71,3.24.62.62,0,0,0-.11.17s0,0,0,.06a.36.36,0,0,0,0,.1s0,.07,0,.09a4.11,4.11,0,0,0,.28.65.31.31,0,0,0,.09.11l0,0a.24.24,0,0,0,.09.06l.06,0a.2.2,0,0,0,.11,0h.07a.39.39,0,0,0,.17-.06A5.82,5.82,0,0,0,68.47,44c.56-1.14.85-4.91.88-5.53a1.64,1.64,0,0,1,.54-1.26,15.45,15.45,0,0,1,2-1.26c.22-.05.47-.07.71.49s.79,4,.89,4.57.41.5.56.39a3,3,0,0,0,.84-1,1.37,1.37,0,0,0-.21-1.5c-.28-.31-.73-.82-.54-1.33a1.43,1.43,0,0,1,1.6-1.05c.24,0,1.17.46,1.34,3A21.82,21.82,0,0,1,75.47,48a20.45,20.45,0,0,0-1.09,4.33c-.12.7-.65.57-.78.46s-.29-.65-.37-.73-.3,0-.43.55a7.84,7.84,0,0,1-.86,1.87,1.61,1.61,0,0,0-.1,1,35.83,35.83,0,0,1,.3,5.78,16.64,16.64,0,0,1-3,9.57,22.74,22.74,0,0,1-5.87,5.59,1.85,1.85,0,0,1-1.34.17A4.6,4.6,0,0,1,61,76l-.1-.06c-.35-.16-.4.33-.4.46s.21.65.33,1.14A4.29,4.29,0,0,1,60,80.5c-.76,1.25-1.6,2.62-1.43,4.13,0,.14,0,.23-.11.28m24.26,1.44c.43,2.48.92,5.5,1.47,9.21,0,.2,0,.36.06.52a.13.13,0,0,1,0,.06,2.75,2.75,0,0,1,0,.39v.17s0,.08,0,.12,0,0,0,0a.54.54,0,0,1-.08.19s0,0,0,0a.52.52,0,0,1-.1.11l0,0a1,1,0,0,1-.18.08l-.07,0-.17.05-.12,0-.27,0a6,6,0,0,1-.61.09l-1.06.09c-3.78.35-11.17,1.1-17.1,1.85l-.34,0c-.46.06-.73,0-.77-.46a23.73,23.73,0,0,0-2.81-8c-.2-.32-.4-.64-.61-1s.11-.6.45-.48a33.18,33.18,0,0,1,7.33,4.22,17.67,17.67,0,0,1,1.42,1.08l.11.06,0,0,.09,0h.2a.28.28,0,0,0,.12,0c.08,0,.12-.16.06-.34-.24-.66-1.49-1.95-4.7-4.93-.46-.42-.46-.6,0-.65s1.76,0,2.44,0S69.74,89,69.44,87c-.23-1.55-.41-3.16-.44-3.64a1.36,1.36,0,0,0-1.23-1.5,12,12,0,0,0-4.65.72c-.46.16-.63-.05-.29-.36a36.64,36.64,0,0,0,5.79-5.1,21.56,21.56,0,0,0,4.65-7.62c.12-.37.28-.25.44-.16a4.59,4.59,0,0,1,1.55,3c.36,2.06,1.07,4.91-.19,12.41a45.36,45.36,0,0,1-1.72,7.12c-.2.57.14.9.52.38.88-1.21,2-4.56,3-8.41a52,52,0,0,0,1.47-9.14h0c0-.2,0-.38,0-.55V74c0-.17,0-.33,0-.47a1.43,1.43,0,0,1,0-.23s0,0,0,0l0-.08h0a.35.35,0,0,1,.06-.09s0,0,0,0l0,0,0,0h.16l.2.07c.2.08,1.06.33,1.51,2.4l.06.27s0,.06,0,.09l.06.26v0c.37,1.63,1,4.46,2,10.23" transform="translate(0 0)"/><polygon class="cls-1" points="66.79 89.89 67.21 89.89 67.21 90.97 67.46 90.97 67.46 89.89 67.88 89.89 67.88 89.67 66.79 89.67 66.79 89.89"/><polygon class="cls-1" points="68.8 90.6 68.47 89.67 68.1 89.67 68.1 90.97 68.34 90.97 68.34 89.93 68.7 90.97 68.91 90.97 69.26 89.93 69.26 90.97 69.49 90.97 69.49 89.67 69.13 89.67 68.8 90.6"/></g></svg>