<svg id="Layer_1" data-name="Layer 1" xmlns="http://www.w3.org/2000/svg" viewBox="0 0 120 112.65"><defs><style>.cls-1{fill:#b0b0b1;}</style></defs><title>4</title><g id="g6"><path id="path8" class="cls-1" d="M60,4.25c-1.5.19-3.33.49-4.09.66-1.36.27-3.68.76-7.36,1.52a75.36,75.36,0,0,0-9.81,3c-.9.36-1.93.76-2.31.87a73.67,73.67,0,0,0-11,5.56,52.11,52.11,0,0,0-6.4,4.63A49.1,49.1,0,0,0,3.21,44.34C2,48.56,1.74,50.71,1.77,56.19S2,63.82,3,65.05c1.63,2.12,2.89,1.3,2.89-1.88a58.7,58.7,0,0,1,3.43-19,45.47,45.47,0,0,1,22-24.74,38.28,38.28,0,0,1,10.3-3.87c1.53-.41,2.51-.36,2.4.13-.05.28-2.12,1.34-5.31,2.7-8.8,3.82-11.48,5.48-16,9.89A43,43,0,0,0,10.46,48.67C9.34,52.57,9,57,9.21,65.59c.21,9,.51,11.88,1.58,15.12a52.26,52.26,0,0,0,4.66,9.79,62.82,62.82,0,0,0,9.92,9.84c.32.21,1.55,1.09,2.72,1.9a41.63,41.63,0,0,0,12.24,6.24,62.28,62.28,0,0,0,8.17,1.67c.87,0,1.42.68,1,1.22s-2.84.55-4.91.16a55.88,55.88,0,0,1-15.4-5C23.73,103.9,17.82,98.73,13,92.38c-3.4-4.47-4.27-5.26-5.06-4.58-1.53,1.25,0,6.13,3.35,10.9a47.69,47.69,0,0,0,13.51,12.07,53.85,53.85,0,0,0,31.07,5.51,68.93,68.93,0,0,0,24.25-7.42,39.25,39.25,0,0,0,5.12-3.13l2-1.36a64.53,64.53,0,0,0,9-8.86c6.84-9,10.52-17,11.83-25.7.74-4.85.27-16.51-.87-22.75-1.23-6.51-2.32-9.48-5.23-14.22a26.07,26.07,0,0,0-5.13-6.43C90.71,20.27,81.09,14.8,75,14c-5.28-.73-5.91-.87-6.48-1.39-1.28-1.2-.44-2,1.93-1.8,6,.49,10.79,2,17,5.45C94.25,20,99.54,24,102.76,28c4.77,5.91,8.42,15.94,9.4,25.7.49,4.82.16,15.5-.55,18.94-1.52,7.24-2.53,10.35-5,15.23-4.55,9.13-11.28,15.94-23.08,23.3-1.52,1-2.1,1.71-1.85,2.4.14.35.46.4,1.61.27,2.75-.3,6.51-2.31,11-5.62a56.76,56.76,0,0,0,4.91-3.89,126.37,126.37,0,0,0,10.19-10.3,42.37,42.37,0,0,0,7.82-14.77A76.27,76.27,0,0,0,120,55.24c-.11-3-.3-5.94-.43-6.54s-.5-2.32-.82-3.82a59.46,59.46,0,0,0-11.61-24.25C99.92,12,90.79,7.09,77,4.5A101,101,0,0,0,60,4.25ZM72.51,26.43c.54.36.9,1.28,1.23,3.22a24.44,24.44,0,0,0,.79,3.24L75,34.25l5.69,1.94a66.33,66.33,0,0,1,10.9,4.36c3.06,1.47,3.79,2.18,3.52,3.35a2.2,2.2,0,0,1-2.4,1.55c-.3-.08-5.37,0-11.2.14-9.92.24-21.44.95-25.91,1.61-1,.16-3.33.46-5,.68-3.3.41-6.52.84-13.08,1.77-2.18.3-4.88.68-6,.82s-3.19.46-4.58.71c-2.31.38-2.61.38-3.21,0s-.71-.46-.49-1.06c.51-1.37,10.35-7,17.27-9.84,1.72-.74,3.3-1.42,3.49-1.58a47.5,47.5,0,0,0,2.94-4.17c1.78-2.67,2.81-3.95,3.19-4l5.51-1.12c2.69-.55,5.28-1,5.72-1.12s2.42-.49,4.36-.93C70.47,26.24,72,26.05,72.51,26.43ZM54.58,50A2.84,2.84,0,0,1,54,51.5c-.38.55-1,1.56-1.47,2.24C51.42,55.48,49.81,57,49.13,57a1.68,1.68,0,0,1-1.58-1.56c0-1.71,1.88-3.92,4.49-5.23C53.82,49.3,54.44,49.27,54.58,50Zm34.06,4.06c.46.47.41,1.53-.22,3.33-.54,1.5-.54,1.61-.11,2.1a1.59,1.59,0,0,0,1.07.51c.81,0,1.9.9,1.63,1.34a5.87,5.87,0,0,1-3.49,1.39,5.35,5.35,0,0,1-2-.44c-.84-.4-1-.4-1.71.14-1.77,1.28-4.23,2.23-5.53,2.15a3.46,3.46,0,0,0-1.64.25c-1.72,1.39-4.11,2-8.23,2a34.51,34.51,0,0,0-4,.22c-2.21.36-2.7-.52-1.42-2.53a48.18,48.18,0,0,1,6.65-6.13c.38-.3.63-.58.55-.66a8,8,0,0,0-2,.14,11,11,0,0,1-2.81.08c-1.06-.19-2-1-2-1.74,0-1,.74-1.39,2.54-1.39a21.48,21.48,0,0,0,3.59-.41A21.05,21.05,0,0,1,73,54c2,0,2.62.46,2.62,1.83,0,.84-.39,1.33-3.3,4.3a20,20,0,0,0-3,3.49,22,22,0,0,0,5.5.24l1-.21-.08-1.5a3.58,3.58,0,0,1,.87-2.84,14.35,14.35,0,0,1,5.65-4.55A14.6,14.6,0,0,1,85.7,54c1.12-.11,2.18-.19,2.34-.22A.82.82,0,0,1,88.64,54.06Zm-49.21.52a6.81,6.81,0,0,1,3.65,3.16,7.6,7.6,0,0,1,.38,2.48c0,3.16-2.42,6.13-6.24,7.63-2.89,1.15-3.95,1.31-4.82.74-.38-.25-.74-.41-.77-.36s-.32.77-.65,1.58c-3.92,10.06-5,11.94-6.38,10.71-.49-.43-.54-.7-.41-2.53.3-4.06,3.08-12,5.95-16.84.73-1.23,1.33-2.29,1.33-2.32a2.88,2.88,0,0,0-.93,0c-.73.08-1,0-1.25-.46-.41-.77-.19-1.39.85-2.37C32,54.2,36.62,53.46,39.43,54.58Zm23.13,3.27c.71.71.55,1.56-.65,3.22a37,37,0,0,1-4.2,4.68l-2,2,3,0c1.69,0,4.66.08,6.6.13a16.7,16.7,0,0,0,4.85-.27c2.4-.68,2.37.79,0,2-1.88,1-3.92,1.26-9.73,1.39a43.17,43.17,0,0,0-7.08.6c-4,1-4.77.82-4.77-.84,0-1.15,1.12-2.51,5.28-6.41,3.82-3.54,4.09-3.89,2.81-3.51A10.06,10.06,0,0,1,52,60.77a1.84,1.84,0,0,1-.87-1c-.3-1.2.57-1.58,4.06-1.83,1.69-.11,3.63-.3,4.31-.41C61.55,57.23,62,57.25,62.56,57.85Zm-13.1,1.23c.62,1.63.08,4-2,8.36a23.15,23.15,0,0,0-1.53,3.68c0,1.26-1.47,1.53-2.48.44-.57-.6-.65-1-.65-2.64a5.91,5.91,0,0,1,1.06-3.87,45.13,45.13,0,0,1,4.39-6.46C48.75,58.21,49.21,58.37,49.46,59.08ZM80.79,69.81a5.27,5.27,0,0,1-.46,1.78c-.25.51-.38,1-.27,1.11a7.89,7.89,0,0,0,2.45-.38c3-.76,5.23-1,5.48-.65.35.57-1.72,1.55-8.7,4.19-1,.39-1.11.58-1.63,2.16-.33,1-.79,2.23-1.06,2.83a32.06,32.06,0,0,0-1.15,3.22c-1.44,4.52-2.12,5.42-2.83,3.73-.49-1.17-.19-4.69.62-7.9.71-2.73.66-3-.57-3-.84,0-2-1.2-1.77-1.83.36-1,.68-1.17,2.64-1.17h2l1.28-2c1.59-2.54,2.7-3.55,3.47-3.17A1.22,1.22,0,0,1,80.79,69.81ZM56.46,73.25a13.74,13.74,0,0,1-.57,3.35c-.88,3.46-.9,4-.22,3.71A7.74,7.74,0,0,1,56.76,80c1-.22.68,1-.49,1.77-1.66,1.12-1.86,1.39-2.05,2.73-.1.71-.35,2-.54,2.81s-.44,1.82-.52,2.23a3,3,0,0,1-2.51,2.4c-1.55,0-2.09-1.77-1.47-4.91a5.42,5.42,0,0,0,.14-1.31,25.61,25.61,0,0,0-2.75.85l-2.7.9L43,90.82c-1,3.82-1.41,4.86-2.45,5.67a1.62,1.62,0,0,1-2.45,0c-.65-.73-.65-3.84,0-5.77.74-2.16.63-2.54-.71-2.73s-2.56-1.28-2.12-2.1,1.47-1.25,3.48-1.66c1.47-.3,1.75-.46,1.88-1.06a51,51,0,0,1,3.9-7.5c1.55-2.26,2.75-2.94,3.13-1.79.22.68-.7,4.49-1.6,6.81a13.07,13.07,0,0,0-.71,2c0,.28,1.31.09,3.59-.54,1.53-.41,1.53-.41,2.16-2.1a25,25,0,0,1,3.38-6.51C55.34,72.73,56.19,72.59,56.46,73.25Zm13.76,2.91A21.45,21.45,0,0,1,70,79.79a28.29,28.29,0,0,0-.24,4.66c.11,1.36,0,1.69-.3,1.82-.71.28-2-.7-2.73-2A13.88,13.88,0,0,0,66,83c-.06-.09-.71.51-1.42,1.28-2.31,2.48-4.93,3.35-6.37,2.15-.58-.49-.69-.79-.66-2.13A10.56,10.56,0,0,1,58.18,81l.65-1.74-.63-.49c-.76-.63-.46-1.17.82-1.44a2.1,2.1,0,0,1,2.56,1,6,6,0,0,1,.14,3.9c-.36,1-.06.9,1.71-.49A18.06,18.06,0,0,0,67.66,77c.79-1.26,1.06-1.5,1.85-1.5A.65.65,0,0,1,70.22,76.16Z" transform="translate(0 -4)"/><path id="path10" class="cls-1" d="M83.11,57.53C82.05,58,80,60,80,60.55s.49.33,2.34-.55c1.36-.62,1.77-1,1.91-1.55a3.86,3.86,0,0,1,.46-1.12C85.07,56.84,84.42,56.93,83.11,57.53Z" transform="translate(0 -4)"/><path id="path12" class="cls-1" d="M34.6,58.32a2.25,2.25,0,0,0-.13,1,28,28,0,0,1-1.23,4.44c-1.39,4.09-1.42,4.31-.73,3.95.24-.13,1.25-.57,2.2-1,2.16-1,4.23-2.91,4.64-4.33a2.25,2.25,0,0,0-.25-2,3.34,3.34,0,0,0-1.28-1.39A7.42,7.42,0,0,0,34.6,58.32Z" transform="translate(0 -4)"/><path id="path14" class="cls-1" d="M1,71.67c-.92,1-1.19,2.59-.87,4.93.52,3.65,1.37,5.26,3.27,6.21,1.47.77,2.48.79,3.14.08.43-.46.43-.76.16-3.32-.16-1.55-.38-3.49-.46-4.31C5.94,72.4,5,71.2,3,71,1.9,70.85,1.71,70.9,1,71.67Z" transform="translate(0 -4)"/></g></svg>