<svg id="Layer_1" data-name="Layer 1" xmlns="http://www.w3.org/2000/svg" viewBox="0 0 83.58 126.03"><defs><style>.cls-1,.cls-2{fill:#b0b0b0;}.cls-1{stroke:#fff;stroke-linejoin:round;stroke-width:12.64px;}.cls-3{fill:#fff;}</style></defs><title>5</title><path class="cls-1" d="M38.27,76.46c4.57,9.93,10.26,20.3,15.39,30.28,1.76,3.48,3.08,7.51,5.24,10,6.61,7.39,22.22,2.42,27.63-2.1a13.05,13.05,0,0,0,3.53-4.58c1.82-4.68-.83-10.42-2.15-14.78C84.32,83.63,81,72.33,77.59,61.13c0-.11,0-.22-.16-.22C67.06,68.79,53.38,73.32,38.27,76.46Zm-11.09-13c.83,2.1,2.65,7.78,4.3,9.22,3.53,3,10.65.49,15.56-.94,10-2.87,21.89-7.12,28.4-12.63,1.49-1.27,3.86-3.92,3.92-5.74,0-2.15-2.48-6-3.53-8.6-1.43-3.59-2.43-7.29-3.7-9.38-4.3,5.29-12.24,9.32-19.85,12.46-8.66,3.59-19,6.9-29,6.13A98.54,98.54,0,0,1,27.18,63.44Z" transform="translate(-16.67 -1)"/><path class="cls-2" d="M23,54.84c10.2.77,20.79-2.7,29.62-6.62,7.77-3.36,15.94-7.67,20.3-13.4,1.32,2.26,2.31,6.23,3.8,10.09,1.05,2.81,3.59,7,3.59,9.27,0,1.93-2.43,4.8-4,6.18-6.68,6-18.81,10.48-29.07,13.56-5.08,1.55-12.36,4.25-15.89,1-1.71-1.49-3.53-7.66-4.36-9.87-1.43-3.48-2.31-6.79-4-10.26" transform="translate(-16.67 -1)"/><path class="cls-1" d="M23,54.84c10.2.77,20.79-2.7,29.62-6.62,7.77-3.36,15.94-7.67,20.3-13.4,1.32,2.26,2.31,6.23,3.8,10.09,1.05,2.81,3.59,7,3.59,9.27,0,1.93-2.43,4.8-4,6.18-6.68,6-18.81,10.48-29.07,13.56-5.08,1.55-12.36,4.25-15.89,1-1.71-1.49-3.53-7.66-4.36-9.87C25.58,61.62,24.7,58.31,23,54.84Z" transform="translate(-16.67 -1)"/><path class="cls-1" d="M77.21,59.25c.16,0,.16.06.22.22C80.9,71,84.38,82.69,88,94.66c1.38,4.47,4.08,10.43,2.21,15.23a14,14,0,0,1-3.59,4.74c-5.57,4.69-21.62,9.82-28.41,2.15-2.26-2.53-3.58-6.73-5.4-10.26C47.59,96.21,41.74,85.51,37,75.3,52.55,72,66.56,67.31,77.21,59.25Z" transform="translate(-16.67 -1)"/><path class="cls-2" d="M67.22,78.83c.67,2.32,1.82,4.09,2.49,6.35,5.24-.44,2.7-9.44-2.49-6.35" transform="translate(-16.67 -1)"/><path class="cls-1" d="M67.22,78.83c.67,2.32,1.82,4.09,2.49,6.35C75,84.74,72.41,75.74,67.22,78.83Z" transform="translate(-16.67 -1)"/><path class="cls-2" d="M54.81,83.52a45.3,45.3,0,0,1,2.93,5.63,4.36,4.36,0,0,0,2.92-1.93,3.55,3.55,0,0,0-5.85-3.7" transform="translate(-16.67 -1)"/><path class="cls-1" d="M54.81,83.52a45.3,45.3,0,0,1,2.93,5.63,4.36,4.36,0,0,0,2.92-1.93A3.55,3.55,0,0,0,54.81,83.52Z" transform="translate(-16.67 -1)"/><path class="cls-2" d="M69.49,86.83c-1.11-3.25-3-5.79-4-9.1,8.38-4.41,12.58,8.44,4,9.1" transform="translate(-16.67 -1)"/><path class="cls-1" d="M69.49,86.83c-1.11-3.25-3-5.79-4-9.1C73.84,73.32,78,86.17,69.49,86.83Z" transform="translate(-16.67 -1)"/><path class="cls-2" d="M62.09,87.93c-1.15,1.27-2.2,2.71-4.52,2.87a79,79,0,0,0-4.52-8.27c3.64-3.2,10.7-.77,9,5.4" transform="translate(-16.67 -1)"/><path class="cls-1" d="M62.09,87.93c-1.15,1.27-2.2,2.71-4.52,2.87a79,79,0,0,0-4.52-8.27C56.69,79.33,63.75,81.76,62.09,87.93Z" transform="translate(-16.67 -1)"/><path class="cls-2" d="M48.14,1c5.9-.17,10.37,3.75,10,10.59A6.86,6.86,0,0,1,50,17.77C46.21,17.06,44,11,48,9c1.27-.6,3.26-1,3.48.55.28,1.94-2.65,1.6-2.92,2.76-.67,2.93,3.42,2.82,4.9,2,.78-.44,1.55-.77,1.83-1.66.88-2.42-.78-7.17-2.76-8.22-5.79-3-13.57,1.88-13,8.78.49,5.35,9.92,8.32,7.83,16.21-.33,1.16-.55,2.21-2,1.66s-.22-3.92-.72-5.46c-1.59-4.91-7.5-6.29-7.83-12.58A11.56,11.56,0,0,1,48.14,1" transform="translate(-16.67 -1)"/><path class="cls-2" d="M26.13,28.14c-1.32-4.19,5.63-3.58,7.12-.93,1.54,2.92.22,6.95-.72,8-2.76,3-8.94,1.77-11.31-.55-6.45-6.45-.94-18,9.1-16.93,5.08.49,7.89,4.74,8.39,10.2.16,1.77.44,5.52-1.44,5.46-1.71-.05-1.1-2.7-1.27-5.07-.38-5.3-4.3-10.21-10.75-7.12-4.3,2.1-5.35,9.16-1.66,12,1.66,1.27,5.63,1.65,7,.16s.78-5.18-.71-5.62-2.21,1.43-3.7.38" transform="translate(-16.67 -1)"/><path class="cls-2" d="M74.78,29c5.63.77,13.79-1.27,19,.55a10.07,10.07,0,0,1,6,6.4c.66,2.48.16,6.28.16,9.65V94.28c0,5.9,1,15.83-.55,19.69-1.87,4.74-7.17,6.56-14.23,5.85-.77,0,0-.28.17-.39a16.55,16.55,0,0,0,8.77-18C93,95.22,90.23,88.21,88.07,81c-1.37-4.74-2.86-10.09-4.35-15.27-.55-1.82-1.49-3.92-1.44-5.08,0-1.76,2.1-3.53,2.21-5.29.05-2-1.32-4.64-2.21-6.73-2.48-6.07-5.9-14.4-7.5-19.58" transform="translate(-16.67 -1)"/><path class="cls-2" d="M39.42,76.41c4.31,9.43,9.6,19.25,14.4,28.79,1.66,3.25,2.87,7.17,4.91,9.49,6.18,7,20.8,2.31,25.87-2a12.21,12.21,0,0,0,3.25-4.36c1.71-4.41-.77-9.92-2-14-3.37-11-6.46-21.78-9.65-32.43,0-.11-.06-.22-.17-.17-9.71,7.34-22.5,11.7-36.63,14.68M29.05,64c.78,2,2.49,7.39,4,8.77,3.26,2.81,9.93.44,14.56-.94,9.38-2.76,20.47-6.73,26.59-12,1.43-1.21,3.64-3.75,3.64-5.46,0-2-2.32-5.73-3.25-8.22-1.33-3.42-2.27-6.95-3.48-8.93-4,5-11.47,8.82-18.59,11.86-8.11,3.42-17.81,6.51-27.14,5.84C27,58,27.79,60.91,29.05,64m12-25.65a74.27,74.27,0,0,0-10,5.07c-3,1.93-6.4,4.25-7.11,7.67,1,.83,3.47.16,5.12.39,8.55-6.57,19.81-11.26,31.89-14,1.71-.38,4-.38,5.46-1.1a7.39,7.39,0,0,0,3.09-3.64c-10.1-1.82-20.25,2-28.41,5.63M36.34,76.57c-7.29-.22-8.33-8.44-10.59-14-.78-1.87-1.49-3.86-2.38-6s-2.31-4.19-2.2-6.18c.22-3.64,4.74-6.62,7.28-8.38a56.34,56.34,0,0,1,10-5.46c7.33-3.31,15-6.46,23.88-7.12,3.31-.22,7.56-.05,9.27,1.66,1,1,1.76,4,2.37,5.62,1.54,4.25,2.76,7.56,4.36,11.64.77,2,2,3.86,2,6,0,2.71-1.82,3.48-2,5.3-.11,1.32,1.1,4.08,1.65,5.85,3,10,5.46,18.14,8.39,28.07,1.1,3.81,2.92,7.78,2.75,11.86-.44,9.32-9.87,13.4-18.58,15.11-6.9,1.38-13.35-.27-16.77-5.29-2-3-3.37-6.57-4.91-9.65-5-10.15-9.21-18.1-14.56-29" transform="translate(-16.67 -1)"/><path class="cls-2" d="M18.46,36.31c2.16,1.71,4.25,3.42,8,3.47-2.81,2.32-6,4.3-8,7.45a66.36,66.36,0,0,1,0-10.92" transform="translate(-16.67 -1)"/><path class="cls-3" d="M25.41,54.89c9.33.72,19-2.37,27.14-5.84,7.12-3,14.56-6.79,18.59-11.86,1.21,2,2.1,5.51,3.48,8.93,1,2.49,3.31,6.13,3.25,8.22,0,1.71-2.26,4.25-3.64,5.46-6.12,5.3-17.21,9.27-26.59,12-4.63,1.38-11.3,3.75-14.56.94-1.54-1.33-3.2-6.79-4-8.77-1.26-3.09-2.09-6-3.64-9.11" transform="translate(-16.67 -1)"/><path class="cls-2" d="M18.3,52.74c1.93,4.42,5.18,12.8,7.45,18.59,1.76,4.41,2.75,8,8.21,8.22,7,13.4,14.73,27,21.3,40.27H40.14c-5.9,0-13.18.88-16.77-.89a10.32,10.32,0,0,1-4.91-6.17c-.93-4-.16-9.93-.16-14.79Z" transform="translate(-16.67 -1)"/><path class="cls-2" d="M67.83,79.72c.5,1.71,1.33,3,1.82,4.74,3.86-.39,2-7.06-1.82-4.74m.55-4.42c5.85-1,9.71,5.13,6.73,10.21C74,87.44,70,89.59,68,89.15c-1.66-.33-2-3.09-2.93-5.3-.38-.88-2.7-3.75-2-6,.38-1.1,3.25-2.21,5.29-2.54" transform="translate(-16.67 -1)"/><path class="cls-2" d="M55.48,84.24a42.34,42.34,0,0,1,2.2,4.19A3.5,3.5,0,0,0,59.89,87a2.69,2.69,0,0,0-4.41-2.76m1.43-4.91c6.07-.72,9.82,6.84,5.46,11.31-1.1,1.16-4.47,3.14-6,2.92-2.1-.33-3.64-5.63-4.75-7.67-.27-.49-1.37-1.76-1.26-2.75.22-1.82,4-3.53,6.56-3.81" transform="translate(-16.67 -1)"/><rect class="cls-3" x="28.87" y="77.82" width="2.3" height="2.3"/><rect class="cls-3" x="53.24" y="66.57" width="6.49" height="6.49"/><rect class="cls-3" x="37.39" y="94.5" width="6.49" height="6.49"/><path class="cls-3" d="M58.67,91.31H85.1a0,0,0,0,1,0,0v17.45a6,6,0,0,1-6,6H64.65a6,6,0,0,1-6-6V91.31A0,0,0,0,1,58.67,91.31Z" transform="translate(-51.98 36.54) rotate(-23.67)"/></svg>