<svg id="Layer_1" data-name="Layer 1" xmlns="http://www.w3.org/2000/svg" viewBox="0 0 68.33 56.76"><defs><style>.cls-1{fill:#b0b0b1;}</style></defs><title>6</title><path class="cls-1" d="M3.84,33.74l-.11,0H49.46L35.09,48.12a3.78,3.78,0,0,0,0,5.31l2.23,2.23a3.73,3.73,0,0,0,5.28,0L67.24,31a3.77,3.77,0,0,0,0-5.3L42.6,1.09a3.74,3.74,0,0,0-5.28,0L35.09,3.33A3.67,3.67,0,0,0,34,6a3.58,3.58,0,0,0,1.09,2.59L49.62,23H3.79A3.88,3.88,0,0,0,0,26.88V30A3.8,3.8,0,0,0,3.84,33.74Z" transform="translate(0 0)"/></svg>