<?xml version="1.0" encoding="utf-8"?>
<!-- Generator: Adobe Illustrator 19.0.0, SVG Export Plug-In . SVG Version: 6.00 Build 0)  -->
<svg version="1.1" id="Capa_1" xmlns="http://www.w3.org/2000/svg" xmlns:xlink="http://www.w3.org/1999/xlink" x="0px" y="0px"
	 viewBox="-19 21 24 24" style="enable-background:new -19 21 24 24;" xml:space="preserve">
<style type="text/css">
	.st0{fill:#FFFFFF;}
</style>
<g>
	<g id="visibility">
		<path class="st0" d="M-7,24.8c-5.5,0-10.1,3.4-12,8.2c1.9,4.8,6.5,8.2,12,8.2S3.1,37.8,5,33C3.1,28.2-1.5,24.8-7,24.8z M-7,38.5
			c-3.1,0-5.5-2.4-5.5-5.5s2.4-5.5,5.5-5.5s5.5,2.4,5.5,5.5S-3.9,38.5-7,38.5z M-7,29.7c-1.9,0-3.3,1.4-3.3,3.3s1.4,3.3,3.3,3.3
			s3.3-1.4,3.3-3.3S-5.1,29.7-7,29.7z"/>
	</g>
</g>
</svg>
